<svg xmlns="http://www.w3.org/2000/svg" version="1.1" xmlns:xlink="http://www.w3.org/1999/xlink" viewBox="0 0 200 200"><rect width="200" height="200" fill="url('#gradient')"></rect><defs><linearGradient id="gradient" gradientTransform="rotate(8 0.5 0.5)"><stop offset="0%" stop-color="#000000"></stop><stop offset="100%" stop-color="#000000"></stop></linearGradient></defs><g><g fill="#ffffff" transform="matrix(1.8152665696520704,0,0,1.8152665696520704,31.05277732875173,112.72673720111133)" stroke="#000000" stroke-width="0.75"><path d="M6.85 0L1.07 0L1.07-14.22L6.18-14.22Q8.93-14.22 10.36-13.21Q11.79-12.21 11.79-10.29L11.79-10.29Q11.79-9.19 11.28-8.41Q10.77-7.63 9.79-7.26L9.79-7.26Q10.90-6.96 11.49-6.16Q12.09-5.36 12.09-4.21L12.09-4.21Q12.09-2.12 10.77-1.07Q9.44-0.02 6.85 0L6.85 0ZM6.90-6.04L4.50-6.04L4.50-2.64L6.75-2.64Q7.68-2.64 8.17-3.06Q8.67-3.49 8.67-4.26L8.67-4.26Q8.67-6.04 6.90-6.04L6.90-6.04ZM4.50-11.57L4.50-8.29L6.29-8.29Q7.41-8.30 7.89-8.70Q8.37-9.10 8.37-9.88L8.37-9.88Q8.37-10.78 7.85-11.18Q7.33-11.57 6.18-11.57L6.18-11.57L4.50-11.57ZM13.42-4.82L13.41-5.38Q13.41-6.96 14.02-8.20Q14.64-9.43 15.79-10.10Q16.94-10.76 18.50-10.76L18.50-10.76Q20.87-10.76 22.24-9.29Q23.60-7.82 23.60-5.29L23.60-5.29L23.60-5.18Q23.60-2.71 22.23-1.25Q20.86 0.20 18.52 0.20L18.52 0.20Q16.26 0.20 14.89-1.16Q13.53-2.51 13.42-4.82L13.42-4.82ZM16.71-5.77L16.70-5.18Q16.70-3.71 17.16-3.03Q17.62-2.34 18.52-2.34L18.52-2.34Q20.27-2.34 20.31-5.05L20.31-5.05L20.31-5.38Q20.31-8.22 18.50-8.22L18.50-8.22Q16.85-8.22 16.71-5.77L16.71-5.77ZM31.50-10.64L31.45-7.59L30.36-7.67Q28.81-7.67 28.37-6.69L28.37-6.69L28.37 0L25.08 0L25.08-10.57L28.16-10.57L28.27-9.21Q29.10-10.76 30.59-10.76L30.59-10.76Q31.11-10.76 31.50-10.64L31.50-10.64ZM39.87-14.22L39.87 0L36.57 0L36.57-10.51L33.33-9.56L33.33-12.06L39.57-14.22L39.87-14.22ZM49.75-2.97L49.75-2.97Q49.75-3.39 49.31-3.64Q48.87-3.90 47.64-4.17Q46.41-4.44 45.61-4.89Q44.80-5.33 44.38-5.97Q43.96-6.60 43.96-7.42L43.96-7.42Q43.96-8.88 45.17-9.82Q46.37-10.76 48.31-10.76L48.31-10.76Q50.40-10.76 51.67-9.81Q52.94-8.87 52.94-7.32L52.94-7.32L49.64-7.32Q49.64-8.59 48.30-8.59L48.30-8.59Q47.78-8.59 47.43-8.31Q47.08-8.02 47.08-7.59L47.08-7.59Q47.08-7.15 47.51-6.88Q47.94-6.60 48.88-6.43Q49.82-6.25 50.54-6.01L50.54-6.01Q52.92-5.19 52.92-3.07L52.92-3.07Q52.92-1.62 51.64-0.71Q50.35 0.20 48.31 0.20L48.31 0.20Q46.95 0.20 45.89-0.29Q44.82-0.78 44.23-1.62Q43.63-2.46 43.63-3.39L43.63-3.39L46.71-3.39Q46.73-2.66 47.20-2.32Q47.67-1.98 48.40-1.98L48.40-1.98Q49.07-1.98 49.41-2.26Q49.75-2.53 49.75-2.97ZM54.05-4.82L54.04-5.38Q54.04-6.96 54.66-8.20Q55.27-9.43 56.43-10.10Q57.58-10.76 59.13-10.76L59.13-10.76Q61.50-10.76 62.87-9.29Q64.24-7.82 64.24-5.29L64.24-5.29L64.24-5.18Q64.24-2.71 62.87-1.25Q61.49 0.20 59.15 0.20L59.15 0.20Q56.89 0.20 55.53-1.16Q54.16-2.51 54.05-4.82L54.05-4.82ZM57.34-5.77L57.33-5.18Q57.33-3.71 57.79-3.03Q58.25-2.34 59.15-2.34L59.15-2.34Q60.91-2.34 60.95-5.05L60.95-5.05L60.95-5.38Q60.95-8.22 59.13-8.22L59.13-8.22Q57.48-8.22 57.34-5.77L57.34-5.77ZM68.12-10.57L69.76-3.92L71.43-10.57L74.89-10.57L71.45 0L68.09 0L64.64-10.57L68.12-10.57Z"></path></g></g></svg>